<mxfile host="app.diagrams.net" modified="2024-05-21T01:56:49.060Z" agent="Mozilla/5.0 (X11; Ubuntu; Linux x86_64; rv:125.0) Gecko/20100101 Firefox/125.0" etag="XyJiMd_DpdMavaZZXHtL" version="24.4.4" type="github">
  <diagram name="Page-1" id="mmhT-Pex-2ySGfsCANb3">
    <mxGraphModel dx="1062" dy="516" grid="1" gridSize="10" guides="1" tooltips="1" connect="1" arrows="1" fold="1" page="1" pageScale="1" pageWidth="850" pageHeight="1100" math="0" shadow="0">
      <root>
        <mxCell id="0" />
        <mxCell id="1" parent="0" />
        <mxCell id="EqBaHVZNQgICD4WXDvI4-1" value="" style="rounded=0;whiteSpace=wrap;html=1;" vertex="1" parent="1">
          <mxGeometry x="80" y="180" width="180" height="250" as="geometry" />
        </mxCell>
        <mxCell id="EqBaHVZNQgICD4WXDvI4-3" value="" style="rounded=0;whiteSpace=wrap;html=1;" vertex="1" parent="1">
          <mxGeometry x="410" y="180" width="180" height="250" as="geometry" />
        </mxCell>
        <mxCell id="EqBaHVZNQgICD4WXDvI4-4" value="Sequence Controller" style="text;html=1;align=center;verticalAlign=middle;whiteSpace=wrap;rounded=0;" vertex="1" parent="1">
          <mxGeometry x="110" y="150" width="120" height="30" as="geometry" />
        </mxCell>
        <mxCell id="EqBaHVZNQgICD4WXDvI4-5" value="Loop Controller" style="text;html=1;align=center;verticalAlign=middle;whiteSpace=wrap;rounded=0;" vertex="1" parent="1">
          <mxGeometry x="440" y="150" width="120" height="30" as="geometry" />
        </mxCell>
        <mxCell id="EqBaHVZNQgICD4WXDvI4-18" style="edgeStyle=orthogonalEdgeStyle;rounded=0;orthogonalLoop=1;jettySize=auto;html=1;entryX=0;entryY=0.5;entryDx=0;entryDy=0;" edge="1" parent="1" source="EqBaHVZNQgICD4WXDvI4-8" target="EqBaHVZNQgICD4WXDvI4-19">
          <mxGeometry relative="1" as="geometry">
            <mxPoint x="520" y="645" as="targetPoint" />
          </mxGeometry>
        </mxCell>
        <mxCell id="EqBaHVZNQgICD4WXDvI4-8" value="Safety Button" style="text;html=1;align=center;verticalAlign=middle;whiteSpace=wrap;rounded=0;fillColor=#fff2cc;strokeColor=#d6b656;" vertex="1" parent="1">
          <mxGeometry x="310" y="630" width="120" height="30" as="geometry" />
        </mxCell>
        <mxCell id="EqBaHVZNQgICD4WXDvI4-9" value="" style="endArrow=classic;html=1;rounded=0;exitX=0.989;exitY=0.152;exitDx=0;exitDy=0;exitPerimeter=0;entryX=-0.017;entryY=0.152;entryDx=0;entryDy=0;entryPerimeter=0;" edge="1" parent="1" source="EqBaHVZNQgICD4WXDvI4-1" target="EqBaHVZNQgICD4WXDvI4-3">
          <mxGeometry width="50" height="50" relative="1" as="geometry">
            <mxPoint x="330" y="400" as="sourcePoint" />
            <mxPoint x="380" y="350" as="targetPoint" />
          </mxGeometry>
        </mxCell>
        <mxCell id="EqBaHVZNQgICD4WXDvI4-10" value="" style="endArrow=classic;html=1;rounded=0;exitX=0.989;exitY=0.152;exitDx=0;exitDy=0;exitPerimeter=0;entryX=-0.017;entryY=0.152;entryDx=0;entryDy=0;entryPerimeter=0;" edge="1" parent="1">
          <mxGeometry width="50" height="50" relative="1" as="geometry">
            <mxPoint x="260" y="250" as="sourcePoint" />
            <mxPoint x="409" y="250" as="targetPoint" />
          </mxGeometry>
        </mxCell>
        <mxCell id="EqBaHVZNQgICD4WXDvI4-11" value="" style="endArrow=classic;html=1;rounded=0;exitX=0.989;exitY=0.152;exitDx=0;exitDy=0;exitPerimeter=0;entryX=-0.017;entryY=0.152;entryDx=0;entryDy=0;entryPerimeter=0;" edge="1" parent="1">
          <mxGeometry width="50" height="50" relative="1" as="geometry">
            <mxPoint x="261" y="290" as="sourcePoint" />
            <mxPoint x="410" y="290" as="targetPoint" />
          </mxGeometry>
        </mxCell>
        <mxCell id="EqBaHVZNQgICD4WXDvI4-12" value="" style="endArrow=classic;html=1;rounded=0;exitX=0.989;exitY=0.152;exitDx=0;exitDy=0;exitPerimeter=0;entryX=-0.017;entryY=0.152;entryDx=0;entryDy=0;entryPerimeter=0;" edge="1" parent="1">
          <mxGeometry width="50" height="50" relative="1" as="geometry">
            <mxPoint x="261" y="330" as="sourcePoint" />
            <mxPoint x="410" y="330" as="targetPoint" />
          </mxGeometry>
        </mxCell>
        <mxCell id="EqBaHVZNQgICD4WXDvI4-13" value="" style="endArrow=classic;html=1;rounded=0;exitX=-0.026;exitY=0.78;exitDx=0;exitDy=0;exitPerimeter=0;entryX=0.997;entryY=0.783;entryDx=0;entryDy=0;entryPerimeter=0;" edge="1" parent="1" source="EqBaHVZNQgICD4WXDvI4-3" target="EqBaHVZNQgICD4WXDvI4-1">
          <mxGeometry width="50" height="50" relative="1" as="geometry">
            <mxPoint x="400" y="374.25" as="sourcePoint" />
            <mxPoint x="270" y="374" as="targetPoint" />
          </mxGeometry>
        </mxCell>
        <mxCell id="EqBaHVZNQgICD4WXDvI4-14" value="" style="endArrow=classic;html=1;rounded=0;exitX=-0.009;exitY=0.902;exitDx=0;exitDy=0;exitPerimeter=0;entryX=1.009;entryY=0.905;entryDx=0;entryDy=0;entryPerimeter=0;" edge="1" parent="1" source="EqBaHVZNQgICD4WXDvI4-3" target="EqBaHVZNQgICD4WXDvI4-1">
          <mxGeometry width="50" height="50" relative="1" as="geometry">
            <mxPoint x="308" y="268" as="sourcePoint" />
            <mxPoint x="264" y="405" as="targetPoint" />
          </mxGeometry>
        </mxCell>
        <mxCell id="EqBaHVZNQgICD4WXDvI4-15" value="" style="endArrow=classic;html=1;rounded=0;entryX=0.444;entryY=1;entryDx=0;entryDy=0;entryPerimeter=0;" edge="1" parent="1" target="EqBaHVZNQgICD4WXDvI4-1">
          <mxGeometry width="50" height="50" relative="1" as="geometry">
            <mxPoint x="450" y="430" as="sourcePoint" />
            <mxPoint x="264" y="470" as="targetPoint" />
            <Array as="points">
              <mxPoint x="450" y="470" />
              <mxPoint x="160" y="470" />
            </Array>
          </mxGeometry>
        </mxCell>
        <mxCell id="EqBaHVZNQgICD4WXDvI4-16" value="" style="rounded=0;whiteSpace=wrap;html=1;" vertex="1" parent="1">
          <mxGeometry x="530" y="610" width="140" height="130" as="geometry" />
        </mxCell>
        <mxCell id="EqBaHVZNQgICD4WXDvI4-17" value="Power Wheelchair Control and Display" style="text;html=1;align=center;verticalAlign=middle;resizable=0;points=[];autosize=1;strokeColor=none;fillColor=none;" vertex="1" parent="1">
          <mxGeometry x="480" y="580" width="230" height="30" as="geometry" />
        </mxCell>
        <mxCell id="EqBaHVZNQgICD4WXDvI4-19" value="On/Off" style="text;html=1;align=center;verticalAlign=middle;whiteSpace=wrap;rounded=0;" vertex="1" parent="1">
          <mxGeometry x="530" y="630" width="60" height="30" as="geometry" />
        </mxCell>
        <mxCell id="EqBaHVZNQgICD4WXDvI4-23" style="edgeStyle=orthogonalEdgeStyle;rounded=0;orthogonalLoop=1;jettySize=auto;html=1;entryX=-0.022;entryY=0.575;entryDx=0;entryDy=0;entryPerimeter=0;" edge="1" parent="1" source="EqBaHVZNQgICD4WXDvI4-25" target="EqBaHVZNQgICD4WXDvI4-16">
          <mxGeometry relative="1" as="geometry" />
        </mxCell>
        <mxCell id="EqBaHVZNQgICD4WXDvI4-24" style="edgeStyle=orthogonalEdgeStyle;rounded=0;orthogonalLoop=1;jettySize=auto;html=1;exitX=1;exitY=0.75;exitDx=0;exitDy=0;entryX=-0.017;entryY=0.9;entryDx=0;entryDy=0;entryPerimeter=0;" edge="1" parent="1" source="EqBaHVZNQgICD4WXDvI4-30" target="EqBaHVZNQgICD4WXDvI4-16">
          <mxGeometry relative="1" as="geometry" />
        </mxCell>
        <mxCell id="EqBaHVZNQgICD4WXDvI4-20" value="" style="rounded=0;whiteSpace=wrap;html=1;" vertex="1" parent="1">
          <mxGeometry x="140" y="610" width="130" height="130" as="geometry" />
        </mxCell>
        <mxCell id="EqBaHVZNQgICD4WXDvI4-21" value="Digital Potentiometer" style="text;html=1;align=center;verticalAlign=middle;whiteSpace=wrap;rounded=0;" vertex="1" parent="1">
          <mxGeometry x="160" y="570" width="80" height="30" as="geometry" />
        </mxCell>
        <mxCell id="EqBaHVZNQgICD4WXDvI4-26" value="" style="edgeStyle=orthogonalEdgeStyle;rounded=0;orthogonalLoop=1;jettySize=auto;html=1;entryX=0;entryY=0.5;entryDx=0;entryDy=0;" edge="1" parent="1" source="EqBaHVZNQgICD4WXDvI4-20" target="EqBaHVZNQgICD4WXDvI4-25">
          <mxGeometry relative="1" as="geometry">
            <mxPoint x="270" y="675" as="sourcePoint" />
            <mxPoint x="530" y="675" as="targetPoint" />
            <Array as="points">
              <mxPoint x="300" y="685" />
              <mxPoint x="300" y="685" />
            </Array>
          </mxGeometry>
        </mxCell>
        <mxCell id="EqBaHVZNQgICD4WXDvI4-25" value="Forward/Reverse" style="text;html=1;align=center;verticalAlign=middle;whiteSpace=wrap;rounded=0;fillColor=#d5e8d4;strokeColor=#82b366;" vertex="1" parent="1">
          <mxGeometry x="350" y="670" width="100" height="30" as="geometry" />
        </mxCell>
        <mxCell id="EqBaHVZNQgICD4WXDvI4-29" value="" style="edgeStyle=orthogonalEdgeStyle;rounded=0;orthogonalLoop=1;jettySize=auto;html=1;exitX=1.01;exitY=0.894;exitDx=0;exitDy=0;entryX=0;entryY=0.75;entryDx=0;entryDy=0;exitPerimeter=0;" edge="1" parent="1" source="EqBaHVZNQgICD4WXDvI4-20" target="EqBaHVZNQgICD4WXDvI4-30">
          <mxGeometry relative="1" as="geometry">
            <mxPoint x="270" y="708" as="sourcePoint" />
            <mxPoint x="530" y="708" as="targetPoint" />
          </mxGeometry>
        </mxCell>
        <mxCell id="EqBaHVZNQgICD4WXDvI4-30" value="Direction" style="text;html=1;align=center;verticalAlign=middle;whiteSpace=wrap;rounded=0;fillColor=#d5e8d4;strokeColor=#82b366;" vertex="1" parent="1">
          <mxGeometry x="370" y="700" width="60" height="35" as="geometry" />
        </mxCell>
        <mxCell id="EqBaHVZNQgICD4WXDvI4-31" value="DB9 Pin1" style="text;html=1;align=center;verticalAlign=middle;whiteSpace=wrap;rounded=0;" vertex="1" parent="1">
          <mxGeometry x="530" y="670" width="60" height="30" as="geometry" />
        </mxCell>
        <mxCell id="EqBaHVZNQgICD4WXDvI4-32" value="DB9 Pin2" style="text;html=1;align=center;verticalAlign=middle;whiteSpace=wrap;rounded=0;" vertex="1" parent="1">
          <mxGeometry x="530" y="710" width="60" height="30" as="geometry" />
        </mxCell>
        <mxCell id="EqBaHVZNQgICD4WXDvI4-33" style="edgeStyle=orthogonalEdgeStyle;rounded=0;orthogonalLoop=1;jettySize=auto;html=1;entryX=0.851;entryY=1.025;entryDx=0;entryDy=0;entryPerimeter=0;" edge="1" parent="1" source="EqBaHVZNQgICD4WXDvI4-16" target="EqBaHVZNQgICD4WXDvI4-20">
          <mxGeometry relative="1" as="geometry">
            <mxPoint x="250" y="750" as="targetPoint" />
            <Array as="points">
              <mxPoint x="560" y="790" />
              <mxPoint x="251" y="790" />
            </Array>
          </mxGeometry>
        </mxCell>
        <mxCell id="EqBaHVZNQgICD4WXDvI4-34" style="edgeStyle=orthogonalEdgeStyle;rounded=0;orthogonalLoop=1;jettySize=auto;html=1;entryX=0.851;entryY=1.025;entryDx=0;entryDy=0;entryPerimeter=0;exitX=0.47;exitY=1.014;exitDx=0;exitDy=0;exitPerimeter=0;" edge="1" parent="1" source="EqBaHVZNQgICD4WXDvI4-16">
          <mxGeometry relative="1" as="geometry">
            <mxPoint x="600" y="747" as="sourcePoint" />
            <mxPoint x="215.5" y="740" as="targetPoint" />
            <Array as="points">
              <mxPoint x="596" y="810" />
              <mxPoint x="215" y="810" />
            </Array>
          </mxGeometry>
        </mxCell>
        <mxCell id="EqBaHVZNQgICD4WXDvI4-35" value="Reference Voltage" style="text;html=1;align=center;verticalAlign=middle;whiteSpace=wrap;rounded=0;fillColor=#dae8fc;strokeColor=#6c8ebf;" vertex="1" parent="1">
          <mxGeometry x="370" y="770" width="60" height="30" as="geometry" />
        </mxCell>
        <mxCell id="EqBaHVZNQgICD4WXDvI4-37" value="12V, 100mA" style="text;html=1;align=center;verticalAlign=middle;whiteSpace=wrap;rounded=0;fillColor=#dae8fc;strokeColor=#6c8ebf;" vertex="1" parent="1">
          <mxGeometry x="365" y="800" width="70" height="30" as="geometry" />
        </mxCell>
        <mxCell id="EqBaHVZNQgICD4WXDvI4-39" style="edgeStyle=orthogonalEdgeStyle;rounded=0;orthogonalLoop=1;jettySize=auto;html=1;entryX=0.292;entryY=1.002;entryDx=0;entryDy=0;entryPerimeter=0;exitX=0.697;exitY=1.014;exitDx=0;exitDy=0;exitPerimeter=0;" edge="1" parent="1" source="EqBaHVZNQgICD4WXDvI4-16" target="EqBaHVZNQgICD4WXDvI4-20">
          <mxGeometry relative="1" as="geometry">
            <mxPoint x="630" y="790" as="sourcePoint" />
            <mxPoint x="179.5" y="790" as="targetPoint" />
            <Array as="points">
              <mxPoint x="628" y="860" />
              <mxPoint x="178" y="860" />
            </Array>
          </mxGeometry>
        </mxCell>
        <mxCell id="EqBaHVZNQgICD4WXDvI4-40" value="Ground" style="text;html=1;align=center;verticalAlign=middle;whiteSpace=wrap;rounded=0;fillColor=#dae8fc;strokeColor=#6c8ebf;" vertex="1" parent="1">
          <mxGeometry x="365" y="840" width="70" height="30" as="geometry" />
        </mxCell>
      </root>
    </mxGraphModel>
  </diagram>
</mxfile>
